<svg width="11" height="11" viewBox="0 0 11 11" fill="none" xmlns="http://www.w3.org/2000/svg">
<path id="icn-soccer-selected" d="M0 5.50212C0 5.3506 0.00611111 5.20055 0.0183333 5.05197C0.130574 3.67508 0.757109 2.39089 1.77332 1.4548C2.78952 0.518723 4.12094 -0.000646186 5.50273 6.03375e-07C6.88453 0.000647392 8.21546 0.521263 9.23079 1.4583C10.2461 2.39533 10.8714 3.68011 10.9824 5.0571C10.9941 5.20373 11 5.35036 11 5.50139C11 6.95971 10.4205 8.3583 9.38909 9.38949C8.35764 10.4207 6.95869 11 5.5 11C4.04131 11 2.64236 10.4207 1.61091 9.38949C0.579463 8.3583 0 6.96044 0 5.50212ZM5.5 10.3116C5.9741 10.312 6.44564 10.2421 6.8992 10.1041L7.42647 8.67079L6.91313 7.64438L6.89773 7.61579H4.10007L3.58087 8.6422L4.12793 10.1085C4.57299 10.2425 5.03518 10.3105 5.5 10.3116ZM7.77333 5.3335L7.25047 7.38045L7.79167 8.39806L9.35367 8.37826C9.91994 7.62355 10.2503 6.71828 10.3033 5.77632L9.09333 4.73158L7.77333 5.3335ZM3.20687 8.39806L3.7466 7.38045L3.22667 5.33643L3.212 5.32983L1.9008 4.73232L0.6952 5.77632C0.748233 6.71827 1.07864 7.62352 1.64487 8.37826L3.20687 8.39806ZM5.7112 1.81659V3.3562L7.59147 4.94859L9.02 4.30342L9.5216 2.86279C8.92394 1.95427 8.0372 1.27389 7.0048 0.931676L5.7112 1.81659ZM1.9712 4.29609L2.0812 4.34595L3.38653 4.94126L5.26387 3.35326V1.81365L3.97907 0.933875C2.95019 1.2796 2.06758 1.96134 1.47327 2.86939L1.9712 4.29609Z" fill="url(#paint0_linear_551_838)"/>
<defs>
<linearGradient id="paint0_linear_551_838" x1="10.241" y1="11" x2="0.902" y2="1.155" gradientUnits="userSpaceOnUse">
<stop stop-color="#CCAB67"/>
<stop offset="0.5" stop-color="#AE874B"/>
<stop offset="1" stop-color="#FCF3AC"/>
</linearGradient>
</defs>
</svg>
