<svg width="18" height="16" viewBox="0 0 18 16" fill="none" xmlns="http://www.w3.org/2000/svg">
<g id="Group">
<path id="Union" fill-rule="evenodd" clip-rule="evenodd" d="M9.35837 0.0950826C9.38584 0.543853 9.41688 1.05259 9.22385 1.29244C9.06213 1.49363 8.76586 1.78621 8.37302 2.10314C7.22167 1.33643 6.18585 0.817514 5.51668 0.516032C6.45475 0.183455 7.47113 0 8.53334 0C8.81055 0 9.08444 0.0133868 9.35501 0.0376076L9.35837 0.0950826ZM12.4688 6.05733C12.7722 5.96657 13.1269 5.90186 13.5475 5.85732C14.7568 5.72872 16.0682 7.17924 17.0581 8.31997C16.9718 10.3749 16.0594 12.2301 14.6228 13.6025C14.4844 11.4299 13.919 8.43103 12.4688 6.05733ZM4.92649 3.8084C5.94541 3.60962 6.90269 3.12884 7.66595 2.62135C6.07365 1.59322 4.74557 1.05964 4.48138 0.958078C2.82942 1.7953 1.50748 3.12923 0.738426 4.74551C1.73805 4.37212 2.82066 4.18215 3.88399 3.99706L3.887 3.99653C4.23006 3.9368 4.58457 3.87507 4.92649 3.8084ZM11.0964 4.30265C11.0063 4.21385 10.9156 4.12669 10.8246 4.041C11.6946 3.52837 12.4268 3.17861 12.8865 3.04989C13.5873 2.85383 14.2749 2.73577 14.8917 2.66609C16.0216 3.84927 16.78 5.34954 16.9988 7.00719C15.9781 5.91372 14.7889 4.92051 13.4515 5.06233C12.8839 5.12249 12.4097 5.2236 12.007 5.36617C11.7304 4.98761 11.4288 4.6298 11.0964 4.30265ZM9.70179 8.1725C10.0518 7.06113 10.4572 6.25998 11.2427 5.73995C11.0069 5.4227 10.7533 5.12495 10.4785 4.85446C10.3513 4.7293 10.2228 4.60842 10.0937 4.48968C6.94236 6.50062 2.62565 10.1946 2.23312 13.3952C3.5434 14.7392 5.33659 15.6609 7.35524 15.9224C8.09026 14.5505 8.78205 11.7615 9.19326 10.1029L9.19478 10.0967C9.3917 9.30262 9.5617 8.61711 9.70179 8.1725ZM9.4492 3.92554C8.38789 4.60965 7.22753 5.46084 6.12876 6.41006C4.29609 7.99328 2.15482 10.2521 1.53054 12.5694C0.566918 11.2737 4.94351e-06 9.6993 4.94351e-06 8.00002C4.94351e-06 7.24041 0.115391 6.50639 0.326369 5.81018C1.40971 5.24351 2.69792 5.01724 4.0399 4.78361C4.38819 4.72299 4.74845 4.66025 5.10027 4.59161C6.35656 4.34666 7.51071 3.73479 8.39222 3.11356C8.74058 3.36163 9.09543 3.63211 9.4492 3.92554ZM10.1843 3.46868C11.1995 2.86192 12.0747 2.44237 12.6426 2.28347C13.1525 2.1407 13.6527 2.03671 14.1264 1.96087C13.0318 1.06913 11.6938 0.433561 10.2167 0.156529C10.2494 0.715242 10.2637 1.32865 9.90518 1.77431C9.73484 1.98594 9.44668 2.2762 9.07171 2.5911C9.43892 2.85907 9.81211 3.15129 10.1843 3.46868ZM10.0244 10.2839C10.2189 9.49953 10.3869 8.82211 10.5202 8.39896C10.8244 7.43315 11.1301 6.81058 11.6981 6.41483C13.1625 8.80198 13.7439 12.0177 13.8012 14.2912C12.3503 15.3605 10.5221 16 8.53335 16C8.4618 16 8.39071 15.9977 8.31969 15.9954C8.2996 15.9947 8.27951 15.9941 8.25942 15.9935C8.90098 14.672 9.45033 12.5997 10.0244 10.2839Z" fill="url(#paint0_linear_547_659)"/>
</g>
<defs>
<linearGradient id="paint0_linear_547_659" x1="14.8331" y1="1.97101" x2="2.50823" y2="14.2311" gradientUnits="userSpaceOnUse">
<stop stop-color="#8B6832"/>
<stop offset="0.515625" stop-color="#FCDD9A"/>
<stop offset="1" stop-color="#966B2A"/>
</linearGradient>
</defs>
</svg>
