<svg width="16" height="16" viewBox="0 0 16 16" fill="none" xmlns="http://www.w3.org/2000/svg">
<g id="Layer 1">
<path id="Vector" d="M13.8299 4.03797H8.72944L11.7167 1.03849C11.7701 0.985081 11.8132 0.920824 11.8437 0.849387C11.8741 0.777951 11.8912 0.700735 11.894 0.622147C11.8969 0.54356 11.8853 0.46514 11.8601 0.391366C11.8349 0.317591 11.7965 0.249907 11.7471 0.192177C11.6977 0.134448 11.6383 0.0878031 11.5722 0.0549069C11.5061 0.0220107 11.4347 0.00350701 11.362 0.000452376C11.2894 -0.00260226 11.2168 0.00985189 11.1486 0.0371039C11.0804 0.0643559 11.0177 0.105872 10.9644 0.159282L7.74475 3.39202L4.52515 0.159282C4.41731 0.0514159 4.27426 -0.00571674 4.12746 0.000452376C3.98066 0.00662149 3.84214 0.075587 3.74237 0.192177C3.64261 0.308768 3.58976 0.463432 3.59547 0.622147C3.60118 0.780862 3.66496 0.930625 3.7728 1.03849L6.76006 4.03797H1.65959C1.21944 4.03797 0.797316 4.22701 0.486083 4.56351C0.174849 4.90001 0 5.3564 0 5.83227V14.2057C0 14.6816 0.174849 15.138 0.486083 15.4745C0.797316 15.811 1.21944 16 1.65959 16H13.8299C14.2701 16 14.6922 15.811 15.0034 15.4745C15.3147 15.138 15.4895 14.6816 15.4895 14.2057V5.83227C15.4895 5.3564 15.3147 4.90001 15.0034 4.56351C14.6922 4.22701 14.2701 4.03797 13.8299 4.03797Z" fill="url(#paint0_linear_837_1115)"/>
<path id="Polygon 1" d="M10.0843 9.30718C10.6176 9.6151 10.6176 10.3849 10.0843 10.6928L6.4843 12.7713C5.95097 13.0792 5.2843 12.6943 5.2843 12.0785L5.2843 7.92154C5.2843 7.3057 5.95097 6.9208 6.4843 7.22872L10.0843 9.30718Z" fill="#181818"/>
</g>
<defs>
<linearGradient id="paint0_linear_837_1115" x1="14.4207" y1="16" x2="0.820623" y2="2.12047" gradientUnits="userSpaceOnUse">
<stop stop-color="#FC0000"/>
<stop offset="0.5" stop-color="#E70000"/>
<stop offset="1" stop-color="#FF8383"/>
</linearGradient>
</defs>
</svg>
