<svg width="16" height="16" viewBox="0 0 16 16" fill="none" xmlns="http://www.w3.org/2000/svg">
<g id="Group 86674">
<rect id="Rectangle 2013" width="16" height="16" rx="5" fill="url(#paint0_linear_837_1118)"/>
<g id="icon_7_">
<path id="Union" fill-rule="evenodd" clip-rule="evenodd" d="M5.87611 6.81753L5.87611 11.4307C5.87611 12.0198 5.34507 12.5 4.68806 12.5C4.03351 12.5 3.5 12.0221 3.5 11.4307L3.5 6.81753C3.5 6.22844 4.03104 5.74828 4.68806 5.74828C5.34507 5.74828 5.87611 6.22844 5.87611 6.81753ZM9.26982 4.57148L9.26982 11.4307C9.26982 12.0221 8.73631 12.5 8.08176 12.5C7.42722 12.5 6.89371 12.0221 6.89371 11.4307L6.89371 4.56925C6.89371 3.98016 7.42475 3.5 8.08176 3.5C8.73631 3.50222 9.26982 3.98016 9.26982 4.57148ZM12.6612 11.4307L12.6612 9.10329C12.6612 8.51197 12.1302 8.03403 11.4732 8.03181C10.8162 8.03181 10.2851 8.51197 10.2851 9.10106L10.2851 11.4307C10.2851 12.0221 10.8186 12.5 11.4732 12.5C12.1302 12.5 12.6612 12.0198 12.6612 11.4307Z" fill="#181818"/>
</g>
</g>
<defs>
<linearGradient id="paint0_linear_837_1118" x1="14.896" y1="16" x2="1.312" y2="1.68" gradientUnits="userSpaceOnUse">
<stop stop-color="#CCAB67"/>
<stop offset="0.5" stop-color="#AE874B"/>
<stop offset="1" stop-color="#FCF3AC"/>
</linearGradient>
</defs>
</svg>
