<svg width="16" height="16" viewBox="0 0 16 16" fill="none" xmlns="http://www.w3.org/2000/svg">
<path id="tennis-ball" d="M7.35732 15.996C3.437 15.6845 0.31552 12.5622 0.00401415 8.64268C0.0176626 8.64268 0.0305082 8.6475 0.0441566 8.64589C0.285012 8.61619 0.52667 8.60174 0.77475 8.60174C4.42691 8.60174 7.39826 11.5731 7.39826 15.2252C7.39826 15.4733 7.38381 15.7142 7.35411 15.9558C7.3525 15.9695 7.35812 15.9823 7.35732 15.996ZM8.64589 0.0441568C8.61619 0.285012 8.60173 0.52667 8.60173 0.77475C8.60173 4.42692 11.5731 7.39826 15.2252 7.39826C15.4733 7.39826 15.7142 7.38381 15.9558 7.35411C15.9695 7.3525 15.9823 7.35812 15.996 7.35732C15.6845 3.437 12.563 0.31552 8.64268 0.00401415C8.64268 0.0176626 8.6475 0.0305084 8.64589 0.0441568ZM15.2252 8.60254C10.9091 8.60254 7.39746 5.09087 7.39746 0.77475C7.39746 0.511415 7.41673 0.256109 7.44403 0C3.45547 0.272969 0.273772 3.45466 0 7.44403C0.256109 7.41673 0.511415 7.39746 0.77475 7.39746C5.09087 7.39746 8.60254 10.9091 8.60254 15.2252C8.60254 15.4886 8.58327 15.7439 8.55597 16C12.5453 15.7262 15.727 12.5445 16.0008 8.55517C15.7447 8.58247 15.4886 8.60254 15.2252 8.60254Z" fill="url(#paint0_linear_547_669)"/>
<defs>
<linearGradient id="paint0_linear_547_669" x1="13.9137" y1="1.97101" x2="1.61819" y2="13.4438" gradientUnits="userSpaceOnUse">
<stop stop-color="#8B6832"/>
<stop offset="0.515625" stop-color="#FCDD9A"/>
<stop offset="1" stop-color="#966B2A"/>
</linearGradient>
</defs>
</svg>
