<svg width="13" height="13" viewBox="0 0 13 13" fill="none" xmlns="http://www.w3.org/2000/svg">
<g clip-path="url(#clip0_547_562)">
<path d="M11.832 0.40625H9.16599C8.74533 0.40625 8.40427 0.747313 8.40427 1.16797C8.40427 1.58862 8.74533 1.92969 9.16599 1.92969H9.99627L5.96297 5.96298C5.66208 6.26005 5.66208 6.73995 5.96297 7.037C6.1115 7.18555 6.30572 7.26172 6.49997 7.26172C6.69422 7.26172 6.88847 7.18555 7.03697 7.037L11.0703 3.00371V3.83398C11.0703 4.25464 11.4113 4.5957 11.832 4.5957C12.2527 4.5957 12.5937 4.25464 12.5937 3.83398V1.16797C12.5937 0.747313 12.2527 0.40625 11.832 0.40625Z" fill="#EBC76E"/>
<path d="M11.832 5.73828C11.4114 5.73828 11.0703 6.07934 11.0703 6.5V11.0703H1.92969V1.92969H6.5C6.92066 1.92969 7.26172 1.58862 7.26172 1.16797C7.26172 0.747313 6.92066 0.40625 6.5 0.40625H1.16797C0.747313 0.40625 0.40625 0.747313 0.40625 1.16797V11.832C0.40625 12.2527 0.747313 12.5938 1.16797 12.5938H11.832C12.2527 12.5938 12.5938 12.2527 12.5938 11.832V6.5C12.5938 6.07934 12.2527 5.73828 11.832 5.73828Z" fill="#EBC76E"/>
</g>
<defs>
<clipPath id="clip0_547_562">
<rect width="13" height="13" fill="white"/>
</clipPath>
</defs>
</svg>
