<svg width="17" height="14" viewBox="0 0 17 14" fill="none" xmlns="http://www.w3.org/2000/svg">
<path id="Union" fill-rule="evenodd" clip-rule="evenodd" d="M4.07303 13.2854L8.80598 7.36438C8.98583 7.14057 8.98583 6.79716 8.80598 6.57216L4.07303 0.651185C3.97206 0.528029 3.83112 0.455793 3.68177 0.455793H0.526474C0.319276 0.455793 0.13101 0.59316 0.0458173 0.807499C-0.0393757 1.02065 -0.00361569 1.27052 0.135217 1.4446L4.55158 6.96886L0.135217 12.4943C-0.00361569 12.6672 -0.038324 12.9171 0.0458173 13.1314C0.13101 13.3446 0.319276 13.4819 0.526474 13.4819H3.68177C3.83112 13.4819 3.97206 13.4109 4.07303 13.2854ZM12.1474 13.2854L16.818 7.36438C16.9954 7.14057 16.9954 6.79716 16.818 6.57216L12.1474 0.651185C12.0478 0.528029 11.9087 0.455793 11.7613 0.455793H8.64759C8.44313 0.455793 8.25734 0.59316 8.17327 0.807499C8.0892 1.02065 8.12449 1.27052 8.26149 1.4446L12.6196 6.96886L8.26149 12.4943C8.12449 12.6672 8.09024 12.9171 8.17327 13.1314C8.25734 13.3446 8.44313 13.4819 8.64759 13.4819H11.7613C11.9087 13.4819 12.0478 13.4109 12.1474 13.2854Z" fill="url(#paint0_linear_378_472)"/>
<defs>
<linearGradient id="paint0_linear_378_472" x1="3.2641e-08" y1="5.76028" x2="15.907" y2="2.4909" gradientUnits="userSpaceOnUse">
<stop stop-color="#EFD0A0" stop-opacity="0.5"/>
<stop offset="1" stop-color="#EFD0A0"/>
</linearGradient>
</defs>
</svg>
