<svg width="11" height="15" viewBox="0 0 11 15" fill="none" xmlns="http://www.w3.org/2000/svg">
<path id="Vector" d="M9.40638 5.91629H9.10066V4.48316C9.10066 2.28686 7.48539 0.5 5.5 0.5C3.51461 0.5 1.89934 2.28686 1.89934 4.48316V5.91629H1.59362C0.713019 5.91629 0 6.70674 0 7.67921V12.7354C0 13.7096 0.713019 14.5 1.59362 14.5H9.40638C10.287 14.5 11 13.7096 11 12.7354V7.67921C11 6.70674 10.287 5.91629 9.40638 5.91629ZM6.22826 10.5073V11.9449C6.22826 12.3882 5.90374 12.7506 5.5 12.7506C5.09626 12.7506 4.77174 12.3882 4.77174 11.9449V10.5073C4.3741 10.2376 4.11053 9.75224 4.11053 9.20112C4.11053 8.35337 4.73365 7.66573 5.5 7.66573C6.26635 7.66573 6.88947 8.35337 6.88947 9.20112C6.88947 9.75224 6.6259 10.2376 6.22826 10.5073ZM7.50625 5.91629H3.49375V4.48316C3.49375 3.25936 4.39372 2.26379 5.5 2.26379C6.60628 2.26379 7.50625 3.25936 7.50625 4.48316V5.91629Z" fill="url(#paint0_angular_169_1247)"/>
<defs>
<radialGradient id="paint0_angular_169_1247" cx="0" cy="0" r="1" gradientUnits="userSpaceOnUse" gradientTransform="translate(5.5 7.80435) rotate(90) scale(6.69565 5.26087)">
<stop stop-color="#C4984E"/>
<stop offset="0.333333" stop-color="#E3BB72"/>
<stop offset="0.828125" stop-color="#F6D780"/>
<stop offset="1" stop-color="#E3BB72"/>
</radialGradient>
</defs>
</svg>
