<svg width="37" height="15" viewBox="0 0 37 15" fill="none" xmlns="http://www.w3.org/2000/svg">
<rect width="37" height="15" rx="3" fill="#FF0000"/>
<path d="M12.52 4.01H14.04V9.73H17.24V11H12.52V4.01ZM17.8911 4.01H19.4111V11H17.8911V4.01ZM20.2595 4.01H21.8795L23.7995 8.98L25.7295 4.01H27.3395L24.5495 11H23.0595L20.2595 4.01ZM28.1841 4.01H33.0341V5.28H29.7041V6.9H32.1541V8.12H29.7041V9.73H33.0341V11H28.1841V4.01Z" fill="white"/>
<path d="M8.8 6.80718C9.33333 7.1151 9.33333 7.8849 8.8 8.19282L5.95 9.83827C5.41667 10.1462 4.75 9.76129 4.75 9.14545L4.75 5.85455C4.75 5.23871 5.41667 4.85381 5.95 5.16173L8.8 6.80718Z" fill="white"/>
</svg>
