<svg width="13" height="14" viewBox="0 0 13 14" fill="none" xmlns="http://www.w3.org/2000/svg">
<path d="M12.6933 5.43209L8.48252 5.04156L6.80989 1.15758C6.69279 0.885624 6.30718 0.885624 6.19008 1.15758L4.51748 5.04158L0.306726 5.43209C0.01189 5.45943 -0.107268 5.82615 0.115179 6.02156L3.2922 8.81254L2.36245 12.9379C2.29735 13.2267 2.6093 13.4534 2.86389 13.3022L6.5 11.1431L10.1361 13.3022C10.3907 13.4534 10.7027 13.2267 10.6376 12.9379L9.7078 8.81254L12.8848 6.02156C13.1073 5.82615 12.9881 5.45943 12.6933 5.43209Z" fill="url(#paint0_linear_547_627)"/>
<path d="M6.80989 1.15758C6.69279 0.885624 6.30718 0.885624 6.19008 1.15758L4.51748 5.04158L0.306726 5.43209C0.01189 5.45943 -0.107268 5.82615 0.115179 6.02156L3.2922 8.81254L2.36245 12.9379C2.29735 13.2267 2.6093 13.4534 2.86389 13.3022L3.67545 12.8203C3.78778 8.19667 5.93608 4.94065 7.63694 3.07803L6.80989 1.15758Z" fill="#AE852B" fill-opacity="0.3"/>
<defs>
<linearGradient id="paint0_linear_547_627" x1="11.3043" y1="2.48076" x2="1.75711" y2="11.8221" gradientUnits="userSpaceOnUse">
<stop stop-color="#8B6832"/>
<stop offset="0.515625" stop-color="#FCDD9A"/>
<stop offset="1" stop-color="#966B2A"/>
</linearGradient>
</defs>
</svg>
