<svg width="14" height="18" viewBox="0 0 14 18" fill="none" xmlns="http://www.w3.org/2000/svg">
<path id="Union" fill-rule="evenodd" clip-rule="evenodd" d="M8.19794 0H6.57129C3.52953 0 1.05495 2.50333 1.05495 5.53731C1.05495 6.24922 1.32225 6.89386 1.7489 7.4008H5.27473C6.05234 7.4008 6.72528 7.82705 7.09121 8.45305H7.91209C9.36868 8.45305 10.5495 7.2753 10.5495 5.82243V5.29631H11.6044V5.82243C11.6044 7.85637 9.95124 9.5053 7.91209 9.5053H7.38462C7.38462 10.6659 6.43832 11.6098 5.27473 11.6098H3.16484V10.5575H5.27473C5.85632 10.5575 6.32967 10.0854 6.32967 9.5053C6.32967 8.92519 5.85632 8.45305 5.27473 8.45305H2.01937C0.904121 8.45305 0 9.35486 0 10.4673C0 11.0015 0.212775 11.5137 0.591484 11.8914L2.41896 13.7143H12.0093C13.1224 11.7563 13.7143 9.55654 13.7143 7.28982V5.53731C13.7143 2.4984 11.2445 0 8.19794 0ZM2.57143 14.5714V18H6.85714C6.47 17.5262 6.23155 16.9431 6.23155 16.3046C6.23155 15.666 6.47 15.0452 6.85714 14.5714H2.57143ZM8.78571 18C7.72065 18 6.85714 17.2409 6.85714 16.3046C6.85714 15.3682 7.72065 14.5714 8.78571 14.5714H12V18H8.78571Z" fill="url(#paint0_linear_547_670)"/>
<defs>
<linearGradient id="paint0_linear_547_670" x1="11.9255" y1="2.21739" x2="-1.17032" y2="11.527" gradientUnits="userSpaceOnUse">
<stop stop-color="#8B6832"/>
<stop offset="0.515625" stop-color="#FCDD9A"/>
<stop offset="1" stop-color="#966B2A"/>
</linearGradient>
</defs>
</svg>
