<svg width="9" height="9" viewBox="0 0 9 9" fill="none" xmlns="http://www.w3.org/2000/svg">
<g id="Layer 2">
<path id="Vector" d="M7.65005 9.0002H6.75005C6.69094 9.00023 6.63241 8.98862 6.5778 8.96601C6.52319 8.94341 6.47357 8.91026 6.43178 8.86847C6.38998 8.82668 6.35684 8.77706 6.33423 8.72245C6.31163 8.66783 6.30002 8.6093 6.30005 8.5502V3.1502C6.30002 3.09109 6.31163 3.03256 6.33423 2.97795C6.35684 2.92334 6.38998 2.87372 6.43178 2.83192C6.47357 2.79013 6.52319 2.75698 6.5778 2.73438C6.63241 2.71178 6.69094 2.70016 6.75005 2.7002H8.55005C8.60915 2.70016 8.66769 2.71178 8.7223 2.73438C8.77691 2.75698 8.82653 2.79013 8.86832 2.83192C8.91012 2.87372 8.94326 2.92334 8.96586 2.97795C8.98847 3.03256 9.00008 3.09109 9.00005 3.1502V7.6502C8.99966 8.00812 8.8573 8.35127 8.60421 8.60436C8.35112 8.85745 8.00797 8.99981 7.65005 9.0002Z" fill="url(#paint0_linear_547_591)"/>
<path id="Vector_2" d="M6.3 0H0.9C0.6614 0.000309577 0.432662 0.0952301 0.263946 0.263946C0.0952301 0.432662 0.000309577 0.6614 0 0.9V7.65C0.000390688 8.00793 0.142748 8.35108 0.395838 8.60417C0.648927 8.85726 0.992078 8.99961 1.35 9H6.75C6.80911 9.00004 6.86764 8.98842 6.92225 8.96582C6.97686 8.94322 7.02648 8.91007 7.06828 8.86828C7.11007 8.82648 7.14321 8.77686 7.16582 8.72225C7.18842 8.66764 7.20004 8.60911 7.2 8.55V0.9C7.19969 0.6614 7.10477 0.432662 6.93606 0.263946C6.76734 0.0952301 6.5386 0.000309577 6.3 0ZM2.025 1.8H3.375C3.49435 1.8 3.60881 1.84741 3.6932 1.9318C3.77759 2.01619 3.825 2.13065 3.825 2.25C3.825 2.36935 3.77759 2.48381 3.6932 2.5682C3.60881 2.65259 3.49435 2.7 3.375 2.7H2.025C1.90565 2.7 1.79119 2.65259 1.7068 2.5682C1.62241 2.48381 1.575 2.36935 1.575 2.25C1.575 2.13065 1.62241 2.01619 1.7068 1.9318C1.79119 1.84741 1.90565 1.8 2.025 1.8ZM5.175 7.425H2.025C1.90565 7.425 1.79119 7.37759 1.7068 7.2932C1.62241 7.20881 1.575 7.09435 1.575 6.975C1.575 6.85566 1.62241 6.7412 1.7068 6.6568C1.79119 6.57241 1.90565 6.525 2.025 6.525H5.175C5.29435 6.525 5.40881 6.57241 5.4932 6.6568C5.57759 6.7412 5.625 6.85566 5.625 6.975C5.625 7.09435 5.57759 7.20881 5.4932 7.2932C5.40881 7.37759 5.29435 7.425 5.175 7.425ZM5.175 5.85H2.025C1.90565 5.85 1.79119 5.80259 1.7068 5.7182C1.62241 5.63381 1.575 5.51935 1.575 5.4C1.575 5.28065 1.62241 5.1662 1.7068 5.0818C1.79119 4.99741 1.90565 4.95 2.025 4.95H5.175C5.29435 4.95 5.40881 4.99741 5.4932 5.0818C5.57759 5.1662 5.625 5.28065 5.625 5.4C5.625 5.51935 5.57759 5.63381 5.4932 5.7182C5.40881 5.80259 5.29435 5.85 5.175 5.85ZM5.175 4.275H2.025C1.90565 4.275 1.79119 4.22759 1.7068 4.1432C1.62241 4.05881 1.575 3.94435 1.575 3.825C1.575 3.70565 1.62241 3.59119 1.7068 3.5068C1.79119 3.42241 1.90565 3.375 2.025 3.375H5.175C5.29435 3.375 5.40881 3.42241 5.4932 3.5068C5.57759 3.59119 5.625 3.70565 5.625 3.825C5.625 3.94435 5.57759 4.05881 5.4932 4.1432C5.40881 4.22759 5.29435 4.275 5.175 4.275Z" fill="url(#paint1_linear_547_591)"/>
</g>
<defs>
<linearGradient id="paint0_linear_547_591" x1="8.64788" y1="3.47628" x2="5.30175" y2="4.81431" gradientUnits="userSpaceOnUse">
<stop stop-color="#8B6832"/>
<stop offset="1" stop-color="#3C280A"/>
</linearGradient>
<linearGradient id="paint1_linear_547_591" x1="6.26087" y1="1.1087" x2="-0.385708" y2="6.06992" gradientUnits="userSpaceOnUse">
<stop stop-color="#8B6832"/>
<stop offset="0.515625" stop-color="#FCDD9A"/>
<stop offset="1" stop-color="#966B2A"/>
</linearGradient>
</defs>
</svg>
