<svg width="37" height="37" viewBox="0 0 37 37" fill="none" xmlns="http://www.w3.org/2000/svg">
<path d="M33.8146 0C32.8896 0 32.0571 0.398907 31.4732 1.02906C31.4558 1.02328 31.4327 1.0175 31.4154 1.0175H5.59048C5.56736 1.0175 5.55001 1.02906 5.53267 1.02906C4.94876 0.398907 4.11626 0 3.19704 0C1.43375 0 0 1.43375 0 3.19704C0 4.95454 1.43375 6.38251 3.19704 6.38251C4.12204 6.38251 4.95454 5.98361 5.53267 5.35345C5.55001 5.35345 5.56736 5.36501 5.59048 5.36501H6.55017V27.7269C6.55017 27.8599 6.61376 27.9871 6.71783 28.0738L18.2399 36.9134C18.315 36.9712 18.4075 37.0001 18.5 37.0001C18.5925 37.0001 18.685 36.9712 18.766 36.9134L30.288 28.0738C30.3979 27.9929 30.4557 27.8657 30.4557 27.7269V5.36501H31.4154C31.4385 5.36501 31.4558 5.35345 31.4732 5.35345C32.0571 5.98361 32.8896 6.38251 33.8146 6.38251C35.5721 6.38251 37.0001 4.95454 37.0001 3.19704C37.0001 1.43375 35.5721 0 33.8146 0ZM3.19704 5.51532C1.9136 5.51532 0.867189 4.4747 0.867189 3.19704C0.867189 1.9136 1.9136 0.867189 3.19704 0.867189C4.4747 0.867189 5.51532 1.9136 5.51532 3.19704C5.51532 4.4747 4.4747 5.51532 3.19704 5.51532ZM29.5885 27.513L18.5 36.0173L7.41158 27.513V5.36501H8.85689V26.588C8.85689 26.721 8.92049 26.8482 9.02455 26.9349L18.2341 33.9938C18.3093 34.0516 18.4075 34.0805 18.5 34.0805C18.5925 34.0805 18.685 34.0516 18.766 33.9938L27.9755 26.9291C28.0854 26.8482 28.1432 26.721 28.1432 26.5822V5.36501H29.5885V27.513ZM9.72408 8.42908H27.2702V26.3741L18.5 33.1035L9.72408 26.3741V8.42908ZM27.276 7.56189H9.72408V5.36501H27.2702V7.56189H27.276ZM30.0221 4.49782H27.7096H9.29049H6.97798H6.09923C6.27845 4.09891 6.38251 3.65954 6.38251 3.19126C6.38251 2.72297 6.27845 2.27782 6.09923 1.87891H30.9008C30.7216 2.27782 30.6176 2.72297 30.6176 3.19126C30.6176 3.65376 30.7216 4.09891 30.9008 4.49782H30.0221ZM33.8146 5.51532C32.5312 5.51532 31.4848 4.4747 31.4848 3.19704C31.4848 1.9136 32.5312 0.867189 33.8146 0.867189C35.0923 0.867189 36.1329 1.9136 36.1329 3.19704C36.1329 4.4747 35.0923 5.51532 33.8146 5.51532Z" fill="#A3A3A3" fill-opacity="0.639"/>
<path d="M26.0041 18.922C26.0041 14.7826 22.6394 11.4121 18.5 11.4121C14.3606 11.4121 10.9901 14.7826 10.9901 18.922C10.9901 23.0614 14.3606 26.4318 18.5 26.4318C22.6394 26.4318 26.0041 23.0614 26.0041 18.922ZM17.5461 25.4837C17.5403 25.4721 17.5403 25.4548 17.5287 25.4432L16.014 23.1654L17.2165 21.512L19.7776 21.4946L21.0264 23.096L19.4308 25.4432C19.4192 25.4606 19.4192 25.4779 19.4076 25.4953C19.1128 25.5357 18.8122 25.5646 18.5058 25.5646C18.1762 25.5646 17.8583 25.53 17.5461 25.4837ZM12.632 22.0149C12.3371 21.4599 12.1175 20.8587 11.9903 20.2228L13.6437 17.9334L15.6961 18.5924L16.5112 21.009L15.3029 22.6682L12.632 22.0149ZM23.0209 14.0715L22.9805 16.9101L20.9628 17.7021L18.8758 16.2163L18.8064 13.9559L21.4311 12.9673C22.015 13.2621 22.5526 13.6321 23.0209 14.0715ZM24.4951 21.7548C24.4836 21.7548 24.4662 21.7548 24.4547 21.7606L21.7201 22.5815L20.4714 20.9801L21.2576 18.5231L23.2753 17.731L25.027 19.951C25.0328 19.9568 25.0444 19.9626 25.0501 19.9684C24.9461 20.5985 24.7611 21.1998 24.4951 21.7548ZM23.8476 17.0604L23.8765 15.0427C24.6223 16.0718 25.079 17.3263 25.1253 18.6792L23.8476 17.0604ZM18.4595 16.9795L20.3962 18.3612L19.6678 20.6332L17.3033 20.6506L16.5459 18.4074L18.4595 16.9795ZM20.639 25.2004L21.83 23.4487L23.8419 22.8474C23.044 23.9285 21.934 24.761 20.639 25.2004ZM20.1997 12.5048L18.3554 13.1985L16.4939 12.5915C17.1298 12.3891 17.8004 12.2793 18.5058 12.2793C19.0897 12.2793 19.6562 12.366 20.1997 12.5048ZM15.2914 13.1118L17.9392 13.979L18.0086 16.2337L15.9562 17.7657L13.8923 17.1009L13.7304 14.3143C14.1872 13.8402 14.7132 13.4298 15.2914 13.1118ZM12.9211 15.3318L13.0367 17.2917L11.8631 18.922C11.8631 17.5981 12.2562 16.3667 12.9211 15.3318ZM13.3315 23.0787L15.2162 23.5354L16.3147 25.1831C15.1353 24.7726 14.1004 24.0384 13.3315 23.0787Z" fill="#A3A3A3" fill-opacity="0.639"/>
</svg>
