<svg width="27" height="27" viewBox="0 0 27 27" fill="none" xmlns="http://www.w3.org/2000/svg">
<g id="Layer 2">
<g id="United Kingdom">
<path id="Vector" d="M26.0476 13.5C26.0476 20.4279 20.4331 26.0445 13.5058 26.0476H13.3703C12.7621 26.0413 12.1551 25.9911 11.5541 25.8976C11.0619 25.8215 10.5748 25.7157 10.0954 25.5808C7.46343 24.8381 5.14602 23.2561 3.49564 21.0754C1.84527 18.8948 0.952245 16.2348 0.952393 13.5C0.952393 6.57112 6.5685 0.952398 13.5 0.952398H13.5058C15.2128 0.95087 16.9021 1.29875 18.4697 1.97463C20.0372 2.65051 21.4498 3.64008 22.6206 4.88242C24.8225 7.21128 26.0488 10.295 26.0476 13.5Z" fill="white"/>
<path id="Vector_2" d="M10.3329 9.76828V10.3329H8.50874L3.38513 6.07248C3.70183 5.64168 4.04585 5.23164 4.41508 4.84491L10.3329 9.76828Z" fill="#C8102E"/>
<path id="Vector_3" d="M23.6303 6.09535L18.5365 10.3302H16.6664V9.80631L22.6045 4.86621L22.6202 4.88242C22.9625 5.24324 23.2827 5.62437 23.5791 6.02373L23.6303 6.09535Z" fill="#C8102E"/>
<path id="Vector_4" d="M10.3328 16.6661V17.2308L4.41505 22.1552C4.36277 22.1029 4.31048 22.0465 4.26134 21.9916C3.95004 21.6533 3.65769 21.2981 3.38562 20.9276L8.50923 16.6661H10.3328Z" fill="#C8102E"/>
<path id="Vector_5" d="M23.6308 20.9041C23.3154 21.3352 22.9728 21.7458 22.6051 22.1332L16.6664 17.1926V16.6661H18.5365L23.6308 20.9041Z" fill="#C8102E"/>
<g id="Group">
<path id="Vector_6" d="M5.96346 10.333H1.35535C1.61714 9.32901 2.00354 8.36177 2.50555 7.4538L5.96346 10.333Z" fill="#012169"/>
<path id="Vector_7" d="M5.85942 16.6661L2.46842 19.4862C1.98384 18.5951 1.61004 17.648 1.35535 16.6661H5.85942Z" fill="#012169"/>
<path id="Vector_8" d="M10.3331 19.3178V25.6439C10.2536 25.6235 10.1762 25.6021 10.0952 25.5796C8.45104 25.1166 6.91922 24.3216 5.59424 23.2436L10.3331 19.3178Z" fill="#012169"/>
<path id="Vector_9" d="M10.3332 1.35529V7.58204L5.66492 3.69855C7.03868 2.59753 8.62946 1.79902 10.3332 1.35529Z" fill="#012169"/>
<path id="Vector_10" d="M21.4062 3.75707L16.6664 7.68605V1.35577L16.738 1.37407C18.4451 1.82945 20.0361 2.64165 21.4062 3.75707Z" fill="#012169"/>
<path id="Vector_11" d="M25.6443 10.3327H21.1481L24.5312 7.51788C25.0153 8.40741 25.3891 9.35268 25.6443 10.3327Z" fill="#012169"/>
<path id="Vector_12" d="M21.4463 23.2128C20.0483 24.3591 18.4183 25.1887 16.6688 25.6444V19.2383L21.4463 23.2128Z" fill="#012169"/>
<path id="Vector_13" d="M25.6441 16.6661C25.3949 17.6243 25.0324 18.5494 24.5645 19.4219L21.2524 16.6661H25.6441Z" fill="#012169"/>
</g>
<path id="Vector_14" d="M26.0476 13.3688V13.6192C26.0422 14.2043 25.9963 14.7883 25.9101 15.367H15.367V25.9096C14.7919 25.9954 14.2116 26.0415 13.6302 26.0476H13.3688C12.7872 26.0416 12.2067 25.9953 11.6315 25.9091V15.367H1.09042C1.00462 14.7912 0.958507 14.2102 0.952393 13.6281C0.952393 13.546 0.952393 13.4634 0.952393 13.3808C0.957801 12.7956 1.00374 12.2114 1.08989 11.6325H11.633V1.09042C12.1805 1.00857 12.7327 0.962461 13.2862 0.952393L13.6908 0.952393C14.219 0.959944 14.7462 1.00081 15.2692 1.07473L15.367 1.08937V11.6325H25.9096C25.9954 12.2074 26.0415 12.7875 26.0476 13.3688Z" fill="#C8102E"/>
</g>
</g>
</svg>
