<svg width="26" height="26" viewBox="0 0 26 26" fill="none" xmlns="http://www.w3.org/2000/svg">
<g id="Group 86754">
<path id="Vector" d="M12.545 25.09C19.4734 25.09 25.09 19.4734 25.09 12.545C25.09 5.61659 19.4734 0 12.545 0C5.61659 0 0 5.61659 0 12.545C0 19.4734 5.61659 25.09 12.545 25.09Z" fill="#F0F0F0"/>
<g id="Group">
<path id="Vector_2" d="M11.9995 12.545H25.0899C25.0899 11.4127 24.939 10.3159 24.6578 9.2724H11.9995V12.545Z" fill="#D80027"/>
<path id="Vector_3" d="M11.9995 5.9998H23.2487C22.4807 4.74667 21.4989 3.63904 20.354 2.72717H11.9995V5.9998Z" fill="#D80027"/>
<path id="Vector_4" d="M12.545 25.09C15.4974 25.09 18.2111 24.0696 20.3541 22.3629H4.73584C6.87883 24.0696 9.59252 25.09 12.545 25.09Z" fill="#D80027"/>
<path id="Vector_5" d="M1.84124 19.0902H23.2487C23.8652 18.0842 24.3433 16.9845 24.6578 15.8176H0.432129C0.746587 16.9845 1.22472 18.0842 1.84124 19.0902Z" fill="#D80027"/>
</g>
<path id="Vector_6" d="M12.545 12.545C12.545 5.61663 12.545 4.79983 12.545 0C5.61663 0 0 5.61663 0 12.545H12.545Z" fill="#0052B4"/>
<g id="Group_2">
<path id="Vector_7" d="M8.34212 10.7383C6.62885 10.7383 5.23998 9.34933 5.23998 7.63611C5.23998 5.92288 6.6289 4.53396 8.34212 4.53396C8.87631 4.53396 9.37895 4.66907 9.81778 4.90683C9.12937 4.23367 8.18791 3.81812 7.14897 3.81812C5.04039 3.81812 3.33093 5.52752 3.33093 7.63616C3.33093 9.74479 5.04039 11.4542 7.14897 11.4542C8.18791 11.4542 9.12937 11.0386 9.81778 10.3655C9.37895 10.6031 8.87636 10.7383 8.34212 10.7383Z" fill="#FFDA44"/>
<path id="Vector_8" d="M9.2163 5.45435L9.76706 6.60604L11.0108 6.31868L10.4538 7.46728L11.4541 8.2605L10.2087 8.54125L10.2122 9.81785L9.2163 9.01918L8.22035 9.81785L8.22378 8.54125L6.97839 8.2605L7.97866 7.46728L7.42163 6.31868L8.6655 6.60604L9.2163 5.45435Z" fill="#FFDA44"/>
</g>
</g>
</svg>
