<svg width="27" height="27" viewBox="0 0 27 27" fill="none" xmlns="http://www.w3.org/2000/svg">
<path d="M13.5 26.0473C20.4297 26.0473 26.0473 20.4297 26.0473 13.5C26.0473 6.57035 20.4297 0.952759 13.5 0.952759C6.57035 0.952759 0.952759 6.57035 0.952759 13.5C0.952759 20.4297 6.57035 26.0473 13.5 26.0473Z" fill="#F0F0F0"/>
<path d="M25.2668 9.13574H1.73319C1.2288 10.495 0.952759 11.9652 0.952759 13.5C0.952759 15.0348 1.2288 16.5049 1.73319 17.8642H25.2669C25.7712 16.5049 26.0473 15.0348 26.0473 13.5C26.0473 11.9652 25.7712 10.495 25.2668 9.13574Z" fill="#0052B4"/>
<path d="M13.5 0.952759C9.69703 0.952759 6.28952 2.64487 3.98853 5.317H23.0114C20.7104 2.64487 17.3029 0.952759 13.5 0.952759Z" fill="#D80027"/>
<path d="M23.0114 21.683H3.98853C6.28952 24.3552 9.69703 26.0473 13.5 26.0473C17.3029 26.0473 20.7104 24.3552 23.0114 21.683Z" fill="#D80027"/>
</svg>
