<svg width="15" height="16" viewBox="0 0 15 16" fill="none" xmlns="http://www.w3.org/2000/svg">
<path id="icn-close-white" d="M9.26133 7.95993L14.6327 2.60318C14.7491 2.48676 14.8415 2.34854 14.9045 2.19643C14.9676 2.04432 15 1.88128 15 1.71664C15 1.55199 14.9676 1.38896 14.9045 1.23684C14.8415 1.08473 14.7491 0.946517 14.6327 0.830095C14.5162 0.713673 14.3779 0.621321 14.2258 0.558314C14.0736 0.495306 13.9105 0.462877 13.7458 0.462877C13.5811 0.462877 13.4181 0.495306 13.2659 0.558314C13.1137 0.621321 12.9755 0.713673 12.859 0.830095L7.50054 6.20077L2.14206 0.830095C1.907 0.594827 1.58808 0.462542 1.25546 0.462342C0.922832 0.462141 0.603751 0.59404 0.368408 0.829024C0.133064 1.06401 0.000737046 1.38283 0.000536064 1.71534C0.000335082 2.04786 0.132277 2.36684 0.367336 2.60211L5.73867 7.95886L0.367336 13.322C0.250876 13.4385 0.158495 13.5767 0.0954674 13.7288C0.0324398 13.8809 2.45421e-09 14.0439 0 14.2086C-2.45421e-09 14.3732 0.0324398 14.5363 0.0954674 14.6884C0.158495 14.8405 0.250876 14.9787 0.367336 15.0951C0.483796 15.2115 0.622054 15.3039 0.774216 15.3669C0.926378 15.4299 1.08946 15.4623 1.25416 15.4623C1.41886 15.4623 1.58195 15.4299 1.73411 15.3669C1.88627 15.3039 2.02453 15.2115 2.14099 15.0951L7.49946 9.72444L12.8579 15.0951C12.9744 15.2115 13.1127 15.3039 13.2648 15.3669C13.417 15.4299 13.5801 15.4623 13.7448 15.4623C13.9095 15.4623 14.0726 15.4299 14.2247 15.3669C14.3769 15.3039 14.5151 15.2115 14.6316 15.0951C14.7481 14.9787 14.8404 14.8405 14.9035 14.6884C14.9665 14.5363 14.9989 14.3732 14.9989 14.2086C14.9989 14.0439 14.9665 13.8809 14.9035 13.7288C14.8404 13.5767 14.7481 13.4385 14.6316 13.322L9.26133 7.95993Z" fill="#FBDEB2"/>
</svg>
