<svg width="21" height="21" viewBox="0 0 21 21" fill="none" xmlns="http://www.w3.org/2000/svg">
<g id="Group 8727">
<path id="Vector" fill-rule="evenodd" clip-rule="evenodd" d="M0.947876 10.8121C0.947876 5.37757 5.3534 0.972046 10.7879 0.972046C16.2224 0.972046 20.6279 5.37757 20.6279 10.8121C20.6279 16.2465 16.2224 20.6521 10.7879 20.6521C5.3534 20.6521 0.947876 16.2465 0.947876 10.8121ZM10.7878 4.90806C8.61402 4.90806 6.85181 6.67027 6.85181 8.84407C6.85181 11.0178 8.61402 12.7801 10.7878 12.7801C12.9616 12.7801 14.7238 11.0178 14.7238 8.84407C14.7238 6.67027 12.9616 4.90806 10.7878 4.90806ZM15.8176 14.7455C16.5633 15.2257 16.5269 16.2724 15.8478 16.8428C14.4796 17.992 12.7147 18.6841 10.788 18.6841C8.87412 18.6841 7.11969 18.0011 5.75528 16.8655C5.07017 16.2952 5.03387 15.2432 5.78278 14.7599C6.01592 14.6094 6.26982 14.4776 6.54537 14.364C7.65401 13.907 9.07003 13.7641 10.7879 13.7641C12.5144 13.7641 13.9385 13.8978 15.05 14.35C15.3277 14.4629 15.5833 14.5947 15.8176 14.7455Z" fill="url(#paint0_linear_86_996)"/>
<path id="Ellipse 596" d="M20.6279 10.8121C20.6279 13.8069 13.7827 13.8069 11.2157 11.2399C6.50963 6.96163 0.947876 10.8121 0.947876 10.8121C0.947876 5.37758 5.35341 0.972046 10.7879 0.972046C16.2224 0.972046 20.6279 5.37758 20.6279 10.8121Z" fill="url(#paint1_linear_86_996)"/>
</g>
<defs>
<linearGradient id="paint0_linear_86_996" x1="10.7879" y1="0.972046" x2="10.7782" y2="20.6521" gradientUnits="userSpaceOnUse">
<stop stop-color="#8B6832"/>
<stop offset="1" stop-color="#FCDD9A"/>
</linearGradient>
<linearGradient id="paint1_linear_86_996" x1="11.6436" y1="12.5234" x2="11.6436" y2="7.38946" gradientUnits="userSpaceOnUse">
<stop stop-color="white" stop-opacity="0.3"/>
<stop offset="1" stop-color="white" stop-opacity="0"/>
</linearGradient>
</defs>
</svg>
