<svg width="24" height="24" viewBox="0 0 24 24" fill="none" xmlns="http://www.w3.org/2000/svg">
<path d="M12 0C5.37246 0 0 5.37246 0 12C0 18.6275 5.37241 24 12 24C18.6276 24 24 18.6275 24 12C24 5.37246 18.6275 0 12 0ZM12 21.8819C6.54246 21.8819 2.11815 17.4575 2.11815 12C2.11815 6.54246 6.54246 2.11815 12 2.11815C17.4575 2.11815 21.8819 6.54246 21.8819 12C21.8819 17.4575 17.4575 21.8819 12 21.8819Z" fill="#E41F2D"/>
<path d="M21.2483 4.36328C22.5438 6.27992 23.3007 8.59297 23.3007 11.0837C23.3007 17.7017 17.9571 23.0664 11.3652 23.0664C7.67203 23.0664 4.37077 21.3824 2.18176 18.7378C4.32844 21.9135 7.95382 23.9996 12.0644 23.9996C18.6564 23.9996 23.9999 18.6349 23.9999 12.0169C23.9999 9.10664 22.9665 6.43874 21.2483 4.36328Z" fill="#D3162D"/>
<path d="M18.8619 9.37674H18.2764C18.2024 9.37674 18.1423 9.31669 18.1423 9.24263V8.65714C18.1423 8.2342 17.7962 7.875 17.3733 7.88294C16.9632 7.89065 16.6332 8.22547 16.6332 8.63738V9.24267C16.6332 9.31674 16.5731 9.37679 16.499 9.37679H15.8776C15.4547 9.37679 15.0955 9.72291 15.1034 10.1458C15.1111 10.5559 15.4459 10.886 15.8578 10.886H16.499C16.5731 10.886 16.6332 10.946 16.6332 11.0201V11.6415C16.6332 12.0645 16.9793 12.4237 17.4022 12.4157C17.8123 12.408 18.1423 12.0732 18.1423 11.6613V11.0201C18.1423 10.946 18.2024 10.886 18.2764 10.886H18.8817C19.2936 10.886 19.6285 10.5559 19.6362 10.1458C19.6441 9.72286 19.2849 9.37674 18.8619 9.37674Z" fill="white"/>
<path d="M6.54697 7.88379H5.12261C4.70803 7.88379 4.35598 8.22304 4.36377 8.63753C4.37129 9.03945 4.69948 9.36297 5.10323 9.36297H5.80738V15.3587C5.80738 15.7733 6.14663 16.1254 6.56112 16.1176C6.96304 16.11 7.28656 15.7819 7.28656 15.3781V8.62338C7.28652 8.21492 6.95543 7.88379 6.54697 7.88379Z" fill="white"/>
<path d="M13.1242 11.355C13.4336 10.9489 13.6032 10.4309 13.5594 9.873C13.4766 8.81824 12.625 7.96891 11.57 7.88915C10.3017 7.79324 9.23896 8.79807 9.23896 10.0465C9.23896 10.5379 9.40395 10.9914 9.681 11.355C9.05091 11.8803 8.66333 12.6871 8.71418 13.5805C8.79389 14.9804 9.9595 16.0954 11.3615 16.1164C12.8652 16.1389 14.0955 14.9224 14.0955 13.4239C14.0954 12.5932 13.7172 11.8494 13.1242 11.355ZM10.7238 10.1357C10.6669 9.68864 11.0447 9.3109 11.4917 9.36773C11.7965 9.40644 12.0426 9.65254 12.0813 9.95729C12.1381 10.4044 11.7604 10.7821 11.3134 10.7253C11.0086 10.6866 10.7625 10.4405 10.7238 10.1357ZM11.5015 14.6336C10.7546 14.6931 10.1333 14.0718 10.1928 13.3249C10.2396 12.7371 10.7158 12.261 11.3036 12.2141C12.0505 12.1546 12.6718 12.7758 12.6123 13.5228C12.5655 14.1105 12.0893 14.5868 11.5015 14.6336Z" fill="white"/>
</svg>
