<svg xmlns="http://www.w3.org/2000/svg" width="16" height="16" viewBox="0 0 16 16">
  <g id="icn-auth-hide" transform="translate(-0.676 -0.563)">
    <g id="eye-off" transform="translate(-0.324 0.135)">
      <rect id="Rectangle_835" data-name="Rectangle 835" width="16" height="16" transform="translate(1 0.428)" fill="#ba995d" opacity="0"/>
      <path id="Path_4371" data-name="Path 4371" d="M4.228,3.207a.721.721,0,1,0-1.02,1.02L7.252,8.273a2.515,2.515,0,0,0,3.406,3.406L14.7,15.724a.721.721,0,1,0,1.02-1.02Zm5.238,7.336A1.078,1.078,0,0,1,8.388,9.465v-.05l1.121,1.121Z" transform="translate(-0.516 -0.987)" fill="#ba995d"/>
      <path id="Path_4372" data-name="Path 4372" d="M9.342,13.621c-3.09.072-5.116-2.579-5.748-3.593A9.844,9.844,0,0,1,5.2,8.074L4.154,7.061A11.417,11.417,0,0,0,2.092,9.669a.719.719,0,0,0,0,.719c.453.783,2.874,4.67,7.106,4.67h.18a6.812,6.812,0,0,0,2.321-.481l-1.135-1.135a5.561,5.561,0,0,1-1.221.18Zm6.934-3.952c-.46-.8-3-4.8-7.286-4.67a6.811,6.811,0,0,0-2.321.481L7.8,6.615a5.561,5.561,0,0,1,1.221-.18c3.082-.079,5.109,2.579,5.748,3.593a9.844,9.844,0,0,1-1.645,1.954L14.214,13A11.417,11.417,0,0,0,16.3,10.388a.719.719,0,0,0-.029-.719Z" transform="translate(-0.235 -1.55)" fill="#ba995d"/>
    </g>
  </g>
</svg>