<svg width="41" height="41" viewBox="0 0 41 41" fill="none" xmlns="http://www.w3.org/2000/svg">
<circle cx="20.5" cy="20.5" r="20" fill="#181818" fill-opacity="0.8" stroke="url(#paint0_linear_882_2075)"/>
<path fill-rule="evenodd" clip-rule="evenodd" d="M28.5413 19.292L21.708 12.4586C21.0409 11.7915 19.9592 11.7915 19.2921 12.4586L12.4587 19.292C11.7916 19.9591 11.7916 21.0408 12.4587 21.7079C13.1259 22.375 14.2075 22.375 14.8747 21.7079L18.7917 17.7908V27.3333C18.7917 28.2768 19.5565 29.0416 20.5 29.0416C21.4436 29.0416 22.2084 28.2768 22.2084 27.3333V17.7908L26.1254 21.7079C26.7925 22.375 27.8742 22.375 28.5413 21.7079C29.2084 21.0408 29.2084 19.9591 28.5413 19.292Z" fill="url(#paint1_linear_882_2075)"/>
<defs>
<linearGradient id="paint0_linear_882_2075" x1="35.6522" y1="5.05072" x2="4.14493" y2="34.4482" gradientUnits="userSpaceOnUse">
<stop stop-color="#8B6832"/>
<stop offset="0.515625" stop-color="#FCDD9A"/>
<stop offset="1" stop-color="#966B2A"/>
</linearGradient>
<linearGradient id="paint1_linear_882_2075" x1="26.8134" y1="14.0627" x2="13.6854" y2="26.3117" gradientUnits="userSpaceOnUse">
<stop stop-color="#8B6832"/>
<stop offset="0.515625" stop-color="#FCDD9A"/>
<stop offset="1" stop-color="#966B2A"/>
</linearGradient>
</defs>
</svg>
