<svg width="21" height="21" viewBox="0 0 21 21" fill="none" xmlns="http://www.w3.org/2000/svg">
<g id="Group 8728">
<path id="Subtract" fill-rule="evenodd" clip-rule="evenodd" d="M20.6279 10.4296C20.6279 15.8641 16.2224 20.2697 10.7879 20.2697C5.35341 20.2697 0.947876 15.8641 0.947876 10.4296C0.947876 4.99513 5.35341 0.5896 10.7879 0.5896C16.2224 0.5896 20.6279 4.99513 20.6279 10.4296ZM13.8688 9.50233H14.1304C14.8839 9.50233 15.494 10.1787 15.494 11.0108V15.3371C15.494 16.1707 14.8839 16.847 14.1304 16.847H7.44539C6.6919 16.847 6.0818 16.1707 6.0818 15.3371V11.0108C6.0818 10.1787 6.6919 9.50233 7.44539 9.50233H7.70698V7.42041C7.70698 5.54113 9.08909 4.0122 10.7879 4.0122C12.4867 4.0122 13.8688 5.54113 13.8688 7.42041V9.50233ZM11.411 14.6608V13.4306C11.7513 13.1999 11.9768 12.7846 11.9768 12.313C11.9768 11.5876 11.4436 10.9992 10.7879 10.9992C10.1322 10.9992 9.59899 11.5876 9.59899 12.313C9.59899 12.7846 9.82452 13.1999 10.1648 13.4306V14.6608C10.1648 15.04 10.4424 15.3501 10.7879 15.3501C11.1334 15.3501 11.411 15.04 11.411 14.6608ZM9.07124 7.42041V9.50233H12.5046V7.42041C12.5046 6.37325 11.7345 5.52139 10.7879 5.52139C9.8413 5.52139 9.07124 6.37325 9.07124 7.42041Z" fill="url(#paint0_linear_86_984)"/>
<path id="Ellipse 596" d="M20.6279 10.4296C20.6279 13.4244 13.7827 13.4244 11.2157 10.8575C6.50963 6.57918 0.947876 10.4296 0.947876 10.4296C0.947876 4.99513 5.35341 0.5896 10.7879 0.5896C16.2224 0.5896 20.6279 4.99513 20.6279 10.4296Z" fill="url(#paint1_linear_86_984)"/>
</g>
<defs>
<linearGradient id="paint0_linear_86_984" x1="10.7879" y1="0.5896" x2="10.7782" y2="20.2697" gradientUnits="userSpaceOnUse">
<stop stop-color="#8B6832"/>
<stop offset="1" stop-color="#FCDD9A"/>
</linearGradient>
<linearGradient id="paint1_linear_86_984" x1="11.6436" y1="12.1409" x2="11.6436" y2="7.00701" gradientUnits="userSpaceOnUse">
<stop stop-color="white" stop-opacity="0.3"/>
<stop offset="1" stop-color="white" stop-opacity="0"/>
</linearGradient>
</defs>
</svg>
