<svg width="16" height="11" viewBox="0 0 16 11" fill="none" xmlns="http://www.w3.org/2000/svg">
<path fill-rule="evenodd" clip-rule="evenodd" d="M8.00003 0.328583C10.995 0.328583 13.8612 2.53102 15.7546 4.81905C16.0826 5.21569 16.0809 5.7891 15.7546 6.18368C15.2789 6.75854 14.2816 7.86822 12.9496 8.83781C9.58761 11.2852 6.40506 11.2799 3.05048 8.83781C1.71849 7.86822 0.721187 6.75854 0.245476 6.18368C-0.0818254 5.78833 -0.0818254 5.2144 0.245476 4.81905C2.13764 2.53256 5.00444 0.328583 8.00003 0.328583ZM11.4486 5.50136C11.4486 3.59975 9.90164 2.05284 8.00003 2.05284C6.09842 2.05284 4.55151 3.59975 4.55151 5.50136C4.55151 7.40298 6.09842 8.94989 8.00003 8.94989C9.90164 8.94989 11.4486 7.40298 11.4486 5.50136ZM10.4633 5.50138C10.4633 6.86178 9.3605 7.96461 8.0001 7.96461C6.63969 7.96461 5.53687 6.86178 5.53687 5.50138C5.53687 4.14097 6.63969 3.03815 8.0001 3.03815C9.3605 3.03815 10.4633 4.14097 10.4633 5.50138Z" fill="url(#paint0_linear_199_6440)"/>
<defs>
<linearGradient id="paint0_linear_199_6440" x1="7.99999" y1="0.328583" x2="7.9967" y2="10.6714" gradientUnits="userSpaceOnUse">
<stop stop-color="#8B6832"/>
<stop offset="1" stop-color="#FCDD9A"/>
</linearGradient>
</defs>
</svg>
